<?xml version="1.0" encoding="utf-8"?>
<!-- Generator: Adobe Illustrator 16.0.0, SVG Export Plug-In . SVG Version: 6.00 Build 0)  -->
<!DOCTYPE svg PUBLIC "-//W3C//DTD SVG 1.1//EN" "http://www.w3.org/Graphics/SVG/1.1/DTD/svg11.dtd">
<svg version="1.1" id="Layer_1" xmlns="http://www.w3.org/2000/svg" xmlns:xlink="http://www.w3.org/1999/xlink" x="0px" y="0px"
	 width="80px" height="57.331px" viewBox="0 0 80 57.331" enable-background="new 0 0 80 57.331" xml:space="preserve">
<g>
	<g>
		<path fill="#03943F" d="M52.336,15.602c0.865-0.79,1.469-1.205,2.598-1.205c1.131,0,0.076,2.485,2.184,2.485
			c1.847,0,2.862-1.687,2.862-3.003c0-0.739-0.235-1.125-0.575-1.517c-0.398-0.459-1.354-0.827-2.173-0.827
			c-1.582,0-3.03,1.68-4.385,2.734L52.336,15.602z"/>
		<path fill="#8BC53F" d="M18.44,14.897c-0.588,3.317,0.29,7.98,1.524,11.242c1.766,4.665,4.48,12.489,2.47,16.76
			c-1.396,2.96-2.237,3.293-3.183,4.104c1.688,1.453,4.867,3.877,9.002,5.495c6.117,2.394,10.65,2.394,16.389,2.315
			c7.82-0.104,15.416-1.795,19.881-4.965c9.268-6.581,13.275-16.61,9.396-23.9c-2.703-5.08-7.724-6.691-12.502-5.619
			c-1.459,0.326-1.969,0.446-3.089,0.969c-2.769,1.291-5.063,3.388-6.866,5.064c2.727-7.168,1.709-19.533-8.489-24.455
			c-7.843-3.787-17.091-0.445-21.247,4.947C19.975,9.126,18.913,12.23,18.44,14.897"/>
		<path fill="#03943F" d="M39.965,10.428c0.131-0.622-0.045-1.239-0.361-1.774c-1.283-2.175-4.028-1.306-6.721,1.707
			c-1.599,1.791-2.596,4.126-3.455,6.394c-1.107,2.93-1.75,6.683-1.141,9.686c0.572,2.818,2.564,4.233,5.309,4.305
			c0.741,0.019,1.539-0.069,2.258-0.262c-2.1,1.25-5.396,0.812-7.705-0.009c-2.225-0.791-3.992-3.068-4.842-5.233
			c-1.714-4.342-0.205-12.192,3.746-17.002c2.353-2.861,5.275-4.066,8.305-4.352c2.299-0.216,6.936,1.266,5.85,4.586
			C40.986,9.146,40.478,9.952,39.965,10.428"/>
		<path fill="#03943F" d="M48.994,46.23c-0.555-4.069,0.324-11.465,6.561-12.311c0.935-0.127,1.745-0.116,2.428,0.039
			c1.37,0.311,2.359,1.341,2.563,2.839c0.53,3.908-3.808,6.847-7.009,7.673c0.002,0.521,0.033,1.008,0.084,1.393
			c0.288,2.114,1.506,2.372,2.842,2.19c1.609-0.219,2.887-1.884,3.803-3.478c0,2.646-2.084,5.594-5.509,6.059
			C51.465,51.083,49.367,48.983,48.994,46.23 M56.918,35.464c-1.92,0.259-3.003,4.095-3.314,7.204
			c3.146-0.459,5.031-3.295,4.757-5.573C58.269,36.422,57.943,35.324,56.918,35.464"/>
		<path fill="#03943F" d="M47.848,38.187c0.34,4.924-1.557,13.744-7.932,14.184c-2.432,0.167-3.99-0.804-4.152-3.17
			c-0.033-0.475-0.039-1.012,0.045-1.62l1.695-10.758l4.545-1.344l-1.693,11.788c-0.066,0.446-0.104,0.83-0.077,1.179
			c0.042,0.6,0.354,0.99,1.269,0.927c3.094-0.213,4.73-7.273,4.492-10.711c-0.184,0.074-0.488,0.074-0.652,0.17
			c-0.979,0.57-1.6-0.438-1.975-1.239c-0.578-1.249,0.543-2.193,1.584-2.267C46.351,35.231,47.734,36.545,47.848,38.187"/>
		<path fill="#03943F" d="M38.646,37.705c-1.108,0.539-1.631,0.864-3.082,0.963c-0.433,0.031-0.717-0.043-0.915-0.214
			c-0.219-2.251-1.116-4.485-4.05-4.285c-2.602,0.179-4.816,1.621-6.113,4.304c0.192,1.851-0.366,4.173-1.193,5.729
			c0,0.184-0.031,0.728-0.028,0.915c0.084,3.684,2.704,5.387,5.033,5.221c3.087-0.218,6.245-3.5,6.403-9.748
			c1.76-0.617,3.158-1.617,4.033-2.885H38.646z M32.438,41.055c-0.163,3.021-0.902,6.104-2.785,6.234
			c-1.244,0.084-1.84-0.85-1.958-2.082c-0.171-1.771,0.137-3.848,0.641-5.538c0.414-1.395,1.336-3.664,2.515-3.687
			c0.865-0.017,1.243,0.504,1.408,1.517c-0.814,0.367-1.272,1.359-1.211,2.255C31.098,40.495,31.542,41.118,32.438,41.055"/>
		<path fill="#4C3539" d="M48.356,46.069c-0.554-4.067,0.325-11.464,6.562-12.309c2.811-0.381,4.533,0.493,4.838,2.737
			c0.53,3.908-3.65,6.76-6.855,7.585c0.002,0.524,0.032,1.008,0.085,1.392c0.288,2.114,1.504,2.602,2.841,2.42
			c1.61-0.217,3.523-1.725,4.439-3.317c-0.201,1.884-2.721,5.434-6.146,5.899C50.828,50.925,48.73,48.824,48.356,46.069
			 M56.279,35.304c-1.916,0.261-3,4.095-3.313,7.204c3.147-0.459,5.031-3.292,4.756-5.571
			C57.633,36.263,57.308,35.164,56.279,35.304"/>
		<path fill="#4C3539" d="M47.212,38.027c0.339,4.924-1.558,13.744-7.934,14.186c-2.43,0.165-3.989-0.806-4.151-3.172
			c-0.033-0.475-0.039-1.013,0.045-1.62l1.694-10.435l4.544-1.344l-1.691,11.465c-0.065,0.448-0.102,0.83-0.076,1.178
			c0.04,0.6,0.354,0.991,1.269,0.928C44.004,49,45.643,41.942,45.403,38.5c-0.185,0.076-0.464,0.159-0.653,0.174
			c-0.916,0.063-1.387-0.792-1.447-1.679c-0.047-0.662,0.65-1.597,1.691-1.67C46.354,35.232,47.097,36.386,47.212,38.027"/>
		<path fill="#4C3539" d="M38.012,37.545c-1.111,0.541-1.634,0.865-3.084,0.964c-0.432,0.03-0.717-0.042-0.916-0.215
			c-0.217-2.251-1.115-4.486-4.048-4.284c-2.603,0.179-4.817,1.621-6.114,4.305c0.191,1.85-0.364,4.173-1.191,5.728
			c0,0.183-0.035,0.729-0.029,0.917c0.084,3.683,2.703,5.387,5.031,5.22c3.088-0.219,6.246-3.5,6.406-9.747
			c1.758-0.617,3.154-1.618,4.031-2.887H38.012z M31.802,40.896c-0.163,3.021-0.903,6.104-2.787,6.233
			c-1.241,0.084-1.839-0.85-1.956-2.08c-0.17-1.772,0.137-3.849,0.639-5.54c0.414-1.396,1.335-3.664,2.517-3.687
			c0.866-0.017,1.243,0.505,1.406,1.517c-0.813,0.367-1.272,1.359-1.21,2.255C30.46,40.336,30.906,40.958,31.802,40.896"/>
		<path fill="#03943F" d="M46.604,13.755L44.43,24.102c-0.058,0.313-0.115,0.627-0.115,0.884c0,0.628,0.404,1.401,1.549,0.892
			c1.042-0.463,2.496-1.915,3.635-2.828h0.968c-0.31,0-1.361,1.451-1.596,1.698c-0.642,0.667-1.291,1.341-2.011,1.927
			c-1.259,1.021-3.102,2.389-4.739,1.813c-0.79-0.276-1.671-1.157-1.879-1.991c0.074,0.303-1.323,1.405-1.566,1.579
			c-0.585,0.416-1.267,0.672-1.985,0.704c-1.484,0.067-2.87-0.777-3.566-2.071c-0.365-0.681-0.652-1.573-0.713-2.347
			c-0.383-4.887,2.188-9.92,7.887-9.92c0.686,0,1.215,0.413,1.729,0.841l0.251-0.454L46.604,13.755z M36.678,24.442
			c0,1.712,0.939,2.024,1.654,2.024c0.655,0,1.281-0.627,1.822-1.424c0.029-0.286,0.087-0.601,0.172-0.941l1.595-7.554
			c-0.454-0.396-0.997-0.512-1.396-0.512C38.389,16.036,36.678,20.566,36.678,24.442"/>
		<path fill="#4C3539" d="M46.111,13.912l-2.136,9.999c-0.058,0.312-0.114,0.625-0.114,0.882c0,0.628,0.403,1.4,1.549,0.893
			c1.043-0.464,2.496-1.915,3.636-2.826h0.968c-0.311,0-1.361,1.448-1.598,1.695c-0.641,0.667-1.289,1.344-2.01,1.927
			c-1.258,1.021-3.102,2.39-4.739,1.813c-0.79-0.277-1.67-1.156-1.88-1.99c0.076,0.302-1.325,1.405-1.566,1.578
			c-0.585,0.416-1.265,0.672-1.984,0.705c-1.482,0.065-2.871-0.776-3.564-2.072c-0.369-0.681-0.655-1.574-0.715-2.347
			c-0.381-4.886,2.188-9.921,7.888-9.921c0.683,0,1.396,0.284,1.908,0.712l0.029,0.022L46.111,13.912z M36.227,24.251
			c0,1.712,0.939,2.023,1.652,2.023c0.654,0,1.281-0.625,1.822-1.425c0.028-0.285,0.086-0.599,0.172-0.938l1.596-7.555
			c-0.455-0.397-0.996-0.514-1.396-0.514C37.936,15.843,36.227,20.375,36.227,24.251"/>
		<path fill="#4C3539" d="M60.783,24.689c-1.245,0-2.33-0.309-2.33-2.28c0-0.358,0.033-0.807,0.098-1.286
			c3.035-0.358,7.218-2.449,7.218-6.094c0-2.092-1.47-3.107-4.089-3.107c-0.854,0-1.615,0.146-2.301,0.403l-0.011,0.034
			c1.503,1.501-0.107,4.318-2.013,4.333c-0.518,0.006-1.213,0-1.633-0.858c-0.006-0.019-0.014-0.032-0.021-0.05
			c-1.137,2.13-2.146,4.958-2.146,6.84c0,2.568,2.176,3.79,5.244,3.79c3.193,0,5.805-2.688,6.063-3.842
			C63.822,23.919,62.286,24.689,60.783,24.689 M62.734,13.506c0.959,0,1.118,1.045,1.118,1.674c-0.032,2.121-2.108,4.48-5.048,4.511
			C59.477,16.882,60.947,13.506,62.734,13.506"/>
		<path fill="#03943F" d="M58.551,21.123c-0.064,0.479-0.098,0.928-0.098,1.285c0,1.973,1.085,2.281,2.33,2.281
			c0.211,0,0.422-0.05,0.632-0.08c-1.21-0.02-2.204-0.461-2.204-2.389c0-0.343,0.031-0.77,0.09-1.221
			C59.045,21.052,58.793,21.094,58.551,21.123"/>
		<path fill="#03943F" d="M58.805,19.69c0.256-0.004,0.516-0.029,0.758-0.065c0.59-2.41,1.77-5.352,3.221-6.111
			c-0.016,0-0.03-0.01-0.049-0.01C60.947,13.504,59.476,16.882,58.805,19.69"/>
		<path fill="#03943F" d="M62.438,11.731c-0.655,0-1.272,0.143-1.812,0.282c0.336-0.053,0.682-0.092,1.053-0.092
			c2.619,0,4.09,1.016,4.09,3.107c0,2.582-2.1,4.381-4.406,5.339c0.112-0.036,0.23-0.075,0.367-0.118
			c2.898-0.887,4.797-3.082,4.797-5.411C66.527,12.75,65.059,11.731,62.438,11.731"/>
		<path fill="#03943F" d="M58.799,26.414c-1.895,0-3.443-0.469-4.355-1.43c0.025,0.044,0.045,0.078,0.076,0.125
			c1.122,1.699,3.108,1.985,4.441,1.882c2.863-0.225,5.25-2.142,5.905-4.363c-0.019,0.022-0.034,0.036-0.05,0.06
			C64.434,23.889,61.903,26.414,58.799,26.414"/>
		<path fill="#4C3539" d="M51.647,27.908l-0.003,0.001c-0.004,0.038-0.006,0.074-0.01,0.116L51.647,27.908z"/>
		<path fill="#4C3539" d="M39.648,28.848c-4.732,2.954-10.167,2.283-12.217-0.836c-3.005-4.566,0.709-17.063,6.451-20.557
			c1.081-0.654,3.168-1.303,4.501-0.783c1.802,0.704,1.915,2.604,1.548,3.637c0.709-0.385,1.42-0.993,1.881-1.995
			c1.146-2.501-0.754-4.899-3.201-5.761C35.342,1.4,31.01,2.375,28.09,4.106c-6.484,3.843-9.982,10.815-8.421,18.26
			c0.407,1.94,1.233,4.002,2.333,5.659c1.719,2.594,4.533,4.045,7.519,4.533c1.724,0.281,4.036-0.084,5.651-0.746
			C36.538,31.255,38.289,30.389,39.648,28.848"/>
		<path fill="#4C3539" d="M45.879,29.658c0.042,0.457-0.032,0.947-0.082,1.397c-0.154,1.399-0.711,3.645-2.322,3.742
			c-0.631,0.036-1.058-0.204-1.184-0.774c-0.412,0.461-0.891,0.896-1.283,0.92c-0.717,0.043-1.184-0.275-1.229-1.032
			c-0.008-0.153,0-0.328,0.025-0.522l0.466-2.957l1.386-0.351l-0.51,3.229c-0.014,0.112-0.026,0.224-0.02,0.314
			c0.014,0.224,0.115,0.38,0.489,0.358c0.194-0.012,0.419-0.178,0.63-0.394c-0.006-0.101,0.006-0.225,0.025-0.347l0.504-3.377
			l1.306-0.396l-0.468,3.692c-0.021,0.146-0.031,0.267-0.025,0.378c0.013,0.193,0.104,0.319,0.375,0.305
			c0.792-0.048,1.076-1.642,1.202-2.278c0.107-0.552,0.233-1.19,0.162-1.756c-0.255,0.021-0.532-0.011-0.604-0.326
			c-0.068-0.293,0.108-0.596,0.367-0.674c0.402-0.123,0.734,0.396,0.779,0.743C45.875,29.587,45.877,29.622,45.879,29.658"/>
		<path fill="#4C3539" d="M47.895,29.515l-0.502,3.331c-0.013,0.106-0.026,0.213-0.02,0.3c0.012,0.212,0.117,0.36,0.502,0.338
			c0.387-0.023,0.855-0.591,1.223-0.925l0.326-0.019c-0.416,0.47-1.428,1.815-2.181,1.859c-0.741,0.046-1.223-0.256-1.267-0.978
			c-0.009-0.145,0-0.31,0.028-0.494l0.442-2.897L47.895,29.515z"/>
		<path fill="#4C3539" d="M47.038,28.091c0.394-0.024,0.735,0.277,0.761,0.672c0.021,0.396-0.281,0.729-0.677,0.751
			c-0.393,0.023-0.727-0.27-0.75-0.665C46.349,28.454,46.645,28.113,47.038,28.091"/>
		<path fill="#4C3539" d="M50.652,27.477c0,0-0.173,0.981-0.303,1.844l0.567-0.034l-0.054,0.384l-0.567,0.033
			c-0.474,3.027-0.46,3.122-0.457,3.169c0.013,0.217,0.116,0.354,0.495,0.331s0.84-0.582,1.197-0.905l0.323-0.021
			c-0.409,0.462-1.403,1.782-2.142,1.827c-0.727,0.043-1.191-0.252-1.234-0.962c-0.029-0.5,0.344-2.534,0.455-3.358l-0.311,0.021
			l0.051-0.383l0.313-0.02l0.26-1.503L50.652,27.477z"/>
		<path fill="#4C3539" d="M55.879,32.458c-0.626,0.294-1.035,0.054-1.03-0.276c0.001-0.134,0.056-0.286,0.087-0.418l0.446-1.958
			c0.021-0.069,0.021-0.153,0.022-0.224c0.009-0.679-0.59-1.313-1.164-1.318c-0.444-0.008-0.912,0.228-1.33,0.522l-0.094,0.442
			c0.195-0.142,0.387-0.209,0.623-0.204c0.318,0.002,0.459,0.313,0.455,0.641c0,0.083-0.014,0.163-0.024,0.237l-0.412,1.842
			c-0.042,0.174-0.065,0.349-0.067,0.512c-0.004,0.365,0.112,0.786,0.432,0.994c0.174,0.112,0.393,0.172,0.605,0.188
			c0.316,0.024,1.289-0.151,1.73-0.452c0.367-0.249,1.197-0.663,2.268-3.017C57.334,31.596,56.609,32.111,55.879,32.458"/>
		<polygon fill="#4C3539" points="52.201,33.545 50.752,33.98 51.834,26.678 53.283,26.24 		"/>
		<path fill="#03943F" d="M27.81,0.717c-2.056,0.32-5.036,0.859-7.583,3.534c-1.825,1.914-2.97,3.467-3.331,6.585
			c-0.809,6.962,2.921,16.596,3.862,19.996c1.414,5.102,2.058,7.516,1.483,10.65c-0.384,2.089-1.958,4.396-3.017,5.534
			c1.244-1.626,2.273-3.605,2.021-8.768c-0.134-2.719-1.731-8.414-4.289-16.784c-1.367-4.476-1.803-11.5,0.746-15.416
			C20.327,2.014,24.341,0.587,27.81,0.717"/>
		<path fill="#03943F" d="M57.945,33.071c4.464-0.464,5.487,2.443,6.006,4.292c0.699,2.503-0.283,6.969-3.641,10.531
			c-1.951,2.074-4.407,3.404-7.448,4.437c-2.372,0.807-5.112,1.52-8.196,1.711c-4.934,0.31-9.237-0.012-13.348-1.084
			c-4.212-1.095-7.624-2.376-12.178-5.997c3.308,3.098,6.475,4.527,9.475,5.689c4.472,1.734,9.018,2.133,12.332,2.229
			c4.334,0.128,11.295-0.672,17.279-4.132c4.354-2.518,6.826-7.294,7.627-9.662c0.495-1.469,0.846-4.049,0.112-6.201
			C65.166,32.536,62.759,31.096,57.945,33.071"/>
		<path fill="#4C3539" d="M61.441,46.544c0.016-0.02,0.028-0.04,0.045-0.061C61.47,46.503,61.457,46.524,61.441,46.544"/>
		<polygon fill="#4C3539" points="57.945,33.071 57.945,33.071 57.948,33.071 		"/>
		<path fill="#4C3539" d="M23.508,49.94c0.172,0.098,0.35,0.2,0.518,0.292C23.857,50.137,23.684,50.041,23.508,49.94"/>
		<path fill="#4C3539" d="M21.784,48.877c0.446,0.294,0.885,0.569,1.314,0.823C22.658,49.438,22.22,49.16,21.784,48.877"/>
		<path fill="#4C3539" d="M20.44,47.941c0.184,0.137,0.37,0.275,0.552,0.401C20.803,48.211,20.621,48.076,20.44,47.941"/>
		<path fill="#4C3539" d="M66.496,29.298c-4.428-0.681-6.482,1.487-8.548,3.773c4.81-1.976,7.218-0.533,8.019,1.813
			c0.731,2.152,0.383,4.73-0.113,6.201c-0.801,2.368-3.273,7.145-7.625,9.662c-5.985,3.46-12.945,4.26-17.281,4.131
			c-3.313-0.096-7.857-0.494-12.332-2.229c-3-1.162-6.167-2.592-9.474-5.689c0.296,0.236,0.573,0.432,0.86,0.65
			c-0.266-0.207-0.524-0.418-0.756-0.621c-0.006,0.009-0.014,0.02-0.021,0.027c0.006-0.009,0.014-0.02,0.021-0.027l-0.002-0.004
			c0.006-0.01,0.02-0.024,0.025-0.033c1.224-1.615,2.225-3.608,1.977-8.704c-0.134-2.719-1.731-8.414-4.289-16.784
			c-1.367-4.476-1.803-11.5,0.746-15.416c0.4-0.615,0.84-1.151,1.3-1.65c1.813-2.104,4.523-3.404,7.251-3.652
			c0.504-0.047,0.992-0.055,1.477-0.029c0.026,0.001,0.053-0.002,0.079-0.002c-0.011,0.003-0.026,0.006-0.039,0.009
			c0.345,0.02,0.69,0.046,1.03,0.123c-3.359-1.599-7.021-0.755-9.473,1.05c-2.615,1.931-4.139,4.177-5.344,7.192
			C13.66,9.9,13.4,10.74,13.2,11.589c-0.953,4.051-0.985,8.352-0.331,12.401c0.512,3.164,1.092,6.304,1.646,9.459
			c0.527,3.002,1.23,8.181-0.488,11.117c-0.969-0.634-1.74-1.085-3.604-2.049c-2.918-1.51-8.003-3.39-9.985,0.52
			c-1.832,3.612,2.504,6.432,5.354,7.079c1.782,0.403,3.617,0.386,5.422,0.137c0.701-0.1,3.616-1.161,4.179-0.845
			c1.831,1.042,2.335,1.221,5.078,2.576c7.829,3.868,8.772,4.398,17.479,5.182c11.139,1.007,26.131-2.475,31.512-13.35
			C73.658,35.331,71.385,30.05,66.496,29.298 M8.764,47.642c-1.348,0.265-2.81,0.015-3.864-0.385
			c-0.923-0.35-2.552-1.532-1.86-3.131c0.566-1.306,2.26-1.167,3.125-0.921c2.008,0.565,4.193,2.583,5.223,3.682
			C10.674,47.174,9.583,47.479,8.764,47.642"/>
		<path fill="#03943F" d="M3.041,44.126c0.566-1.305,2.26-1.167,3.123-0.923c2.008,0.567,4.196,2.585,5.225,3.684
			c-0.714,0.285-1.806,0.593-2.624,0.755c-1.349,0.265-2.811,0.015-3.864-0.385C3.978,46.906,2.348,45.723,3.041,44.126"/>
		<path fill="#8BC53F" d="M5.07,44.805c0.427-0.988,1.71-0.883,2.364-0.698c1.521,0.429,3.175,1.956,3.956,2.787
			c-0.542,0.218-1.369,0.448-1.986,0.571c-1.021,0.201-2.129,0.011-2.926-0.291C5.779,46.909,4.547,46.014,5.07,44.805"/>
		<polygon fill="#03943F" points="50.186,12.907 47.074,27.816 51.565,26.308 54.672,11.903 		"/>
		<path fill="#4C3539" d="M53.953,12.094l-0.338,1.612c1.063-0.829,2.248-1.48,3.488-1.48c1.332,0,2.133,0.771,2.133,1.895
			c0,1.035-0.771,2.308-2.223,2.308c-1.654,0-0.826-1.952-1.715-1.952c-0.887,0-1.359,0.325-2.04,0.947l-2.466,11.373l-4.449,1.214
			l3.112-14.907L53.953,12.094z"/>
	</g>
	<path d="M76.836,14.89v-0.021c0.439-0.15,0.793-0.522,0.793-1.077c0-0.335-0.126-0.624-0.334-0.812
		c-0.26-0.233-0.643-0.348-1.229-0.348c-0.371,0-0.773,0.038-1.051,0.089v4.189h0.547v-1.839h0.518
		c0.496,0.019,0.729,0.239,0.855,0.824c0.115,0.529,0.207,0.889,0.277,1.015h0.566c-0.088-0.164-0.188-0.573-0.326-1.165
		C77.352,15.304,77.156,15.003,76.836,14.89z M76.125,14.655h-0.563v-1.55c0.094-0.024,0.278-0.045,0.541-0.045
		c0.58,0,0.977,0.24,0.977,0.789C77.08,14.335,76.709,14.655,76.125,14.655z"/>
	<path d="M76.229,10.979c-2.078,0-3.769,1.69-3.769,3.769c0,2.079,1.69,3.771,3.769,3.771S80,16.826,80,14.747
		C80,12.669,78.308,10.979,76.229,10.979z M76.229,18.044c-1.818,0-3.296-1.479-3.296-3.297c0-1.817,1.478-3.296,3.296-3.296
		s3.299,1.479,3.299,3.296C79.528,16.565,78.048,18.044,76.229,18.044z"/>
</g>
</svg>
