<?xml version="1.0" encoding="utf-8"?>
<!-- Generator: Adobe Illustrator 16.0.0, SVG Export Plug-In . SVG Version: 6.00 Build 0)  -->
<!DOCTYPE svg PUBLIC "-//W3C//DTD SVG 1.1//EN" "http://www.w3.org/Graphics/SVG/1.1/DTD/svg11.dtd">
<svg version="1.1" id="Layer_1" xmlns="http://www.w3.org/2000/svg" xmlns:xlink="http://www.w3.org/1999/xlink" x="0px" y="0px"
	 width="34.991px" height="34.994px" viewBox="0 0 34.991 34.994" enable-background="new 0 0 34.991 34.994" xml:space="preserve">
<g>
	<path fill="#4D3539" d="M17.495,34.525C7.849,34.525,0,26.679,0,17.028C0,7.381,7.849-0.469,17.495-0.469
		c9.647,0,17.496,7.851,17.496,17.497C34.991,26.679,27.143,34.525,17.495,34.525z"/>
	<g>
		<path fill-rule="evenodd" clip-rule="evenodd" fill="#FFFFFF" d="M14.977,18.727c-0.65-0.742-0.934-1.545-0.469-2.501
			c-0.159,0.009-0.291,0.019-0.426,0.027c-2.021,0.149-3.842-1.025-4.21-3.121c-0.176-0.984,0.055-1.9,0.566-2.752
			C10.934,9.569,11.635,9,12.485,8.603c0.861-0.405,1.772-0.634,2.717-0.67c0.997-0.036,1.992-0.027,2.987-0.032
			c0.711,0,1.42,0,2.131,0c0.05,0,0.098,0,0.15,0c0.004,0.01,0.009,0.019,0.011,0.027c-0.031,0.023-0.063,0.051-0.098,0.078
			c-0.436,0.269-0.863,0.547-1.299,0.811c-0.077,0.046-0.176,0.073-0.26,0.073c-0.362,0.009-0.729,0.005-1.094,0.005
			c-0.05,0-0.096,0.004-0.188,0.009c0.079,0.068,0.125,0.114,0.171,0.15c0.64,0.552,1.139,1.198,1.342,2.032
			c0.364,1.495-0.003,2.779-1.167,3.813c-0.332,0.297-0.677,0.583-0.993,0.894c-0.217,0.209-0.349,0.474-0.36,0.787
			c-0.014,0.32,0.092,0.602,0.324,0.807c0.346,0.301,0.715,0.58,1.068,0.875c0.578,0.475,1.159,0.948,1.565,1.591
			c0.398,0.633,0.551,1.33,0.485,2.068c-0.119,1.309-0.803,2.273-1.837,3.018c-0.813,0.582-1.731,0.902-2.708,1.074
			c-0.721,0.133-1.449,0.164-2.176,0.133c-0.98-0.041-1.928-0.223-2.806-0.688c-0.703-0.365-1.275-0.871-1.588-1.609
			c-0.421-0.994-0.264-1.928,0.306-2.816c0.515-0.783,1.269-1.266,2.123-1.611c0.757-0.307,1.548-0.471,2.355-0.561
			C14.077,18.809,14.51,18.773,14.977,18.727z M14.955,25.144c0.123-0.006,0.307-0.02,0.489-0.033
			c0.619-0.049,1.217-0.182,1.759-0.506c0.766-0.455,1.164-1.129,1.178-2.023c0.009-0.633-0.246-1.152-0.677-1.604
			c-0.503-0.527-1.104-0.938-1.688-1.375c-0.175-0.127-0.355-0.191-0.561-0.174c-0.561,0.047-1.123,0.068-1.674,0.143
			c-0.653,0.09-1.275,0.281-1.846,0.627c-0.961,0.584-1.381,1.555-1.121,2.639c0.189,0.775,0.704,1.309,1.388,1.686
			C13.039,24.994,13.954,25.125,14.955,25.144z M11.927,11.505c0.022,0.188,0.046,0.516,0.107,0.834
			c0.161,0.843,0.455,1.631,1.012,2.301c0.571,0.688,1.291,1.058,2.202,0.894c0.76-0.136,1.358-0.524,1.656-1.28
			c0.155-0.393,0.191-0.807,0.169-1.227c-0.034-0.664-0.166-1.312-0.41-1.932c-0.271-0.692-0.631-1.321-1.226-1.79
			c-1.116-0.88-2.738-0.488-3.285,0.792C11.981,10.503,11.936,10.931,11.927,11.505z"/>
		<path fill-rule="evenodd" clip-rule="evenodd" fill="#FFFFFF" d="M23.983,15.538c0.807,0,1.59,0,2.386,0c0,0.406,0,0.803,0,1.213
			c-0.067,0-0.122,0-0.171,0c-0.69,0-1.379,0-2.063,0c-0.114-0.006-0.15,0.027-0.148,0.145c0.005,0.697,0,1.399,0.005,2.103
			c0,0.123-0.034,0.158-0.157,0.154c-0.301-0.01-0.599-0.01-0.897,0c-0.118,0-0.15-0.045-0.148-0.154
			c0.003-0.698-0.002-1.392,0.003-2.089c0-0.123-0.032-0.168-0.162-0.164c-0.672,0.01-1.346,0.006-2.019,0.006
			c-0.055,0-0.111,0-0.175,0c0-0.41,0-0.803,0-1.207c0.773,0,1.551,0,2.339,0c0.005-0.069,0.014-0.124,0.014-0.184
			c0-0.679,0.003-1.357-0.002-2.036c-0.002-0.128,0.036-0.174,0.171-0.169c0.337,0.014,0.672,0.005,1.025,0.005
			C23.983,13.953,23.983,14.736,23.983,15.538z"/>
	</g>
</g>
</svg>
