<?xml version="1.0" encoding="utf-8"?>
<!-- Generator: Adobe Illustrator 16.0.0, SVG Export Plug-In . SVG Version: 6.00 Build 0)  -->
<!DOCTYPE svg PUBLIC "-//W3C//DTD SVG 1.1//EN" "http://www.w3.org/Graphics/SVG/1.1/DTD/svg11.dtd">
<svg version="1.1" id="Layer_1" xmlns="http://www.w3.org/2000/svg" xmlns:xlink="http://www.w3.org/1999/xlink" x="0px" y="0px"
	 width="34.993px" height="34.994px" viewBox="0 0 34.993 34.994" enable-background="new 0 0 34.993 34.994" xml:space="preserve">
<g>
	<path fill="#4D3539" d="M17.496,34.525C7.849,34.525,0,26.679,0,17.028C0,7.381,7.849-0.469,17.496-0.469
		c9.649,0,17.497,7.851,17.497,17.497C34.993,26.679,27.146,34.525,17.496,34.525z"/>
	<path fill="#FFFFFF" d="M21.716,21.248h-3.522c-1.355,0-2.456-1.104-2.456-2.456v-1.148h5.732c1.357,0,2.456-1.098,2.456-2.456
		c0-1.357-1.099-2.451-2.456-2.451h-5.732v-2.379c0-1.357-1.098-2.456-2.455-2.456c-1.36,0-2.459,1.099-2.459,2.456v8.435
		c0,4.06,3.308,7.368,7.37,7.368h3.522c1.355,0,2.454-1.098,2.454-2.457C24.17,22.345,23.071,21.248,21.716,21.248z"/>
</g>
</svg>
