<?xml version="1.0" encoding="utf-8"?>
<!-- Generator: Adobe Illustrator 16.0.0, SVG Export Plug-In . SVG Version: 6.00 Build 0)  -->
<!DOCTYPE svg PUBLIC "-//W3C//DTD SVG 1.1//EN" "http://www.w3.org/Graphics/SVG/1.1/DTD/svg11.dtd">
<svg version="1.1" id="Layer_1" xmlns="http://www.w3.org/2000/svg" xmlns:xlink="http://www.w3.org/1999/xlink" x="0px" y="0px"
	 width="34.994px" height="34.994px" viewBox="0 0 34.994 34.994" enable-background="new 0 0 34.994 34.994" xml:space="preserve">
<g>
	<g>
		<g opacity="0.1">
			<defs>
				<rect id="SVGID_32_" x="-303" y="50.842" opacity="0.1" width="480" height="76"/>
			</defs>
			<clipPath id="SVGID_2_">
				<use xlink:href="#SVGID_32_"  overflow="visible"/>
			</clipPath>
			<g clip-path="url(#SVGID_2_)">
				<g>
					<path fill="#FFFFFF" d="M19.319,26.686l-1.887,0.467l-0.014-0.01c-0.224-0.187-0.534-0.311-0.832-0.311
						c-2.486,0-3.606,2.195-3.44,4.326c0.026,0.338,0.152,0.727,0.312,1.023c0.303,0.564,0.908,0.932,1.555,0.902
						c0.314-0.014,0.611-0.125,0.867-0.307c0.104-0.075,0.715-0.557,0.683-0.689c0.09,0.365,0.474,0.748,0.819,0.869
						c0.714,0.252,1.519-0.346,2.065-0.791c0.049-0.039,0.093-0.083,0.139-0.123l-0.165,0.79l1.94-0.53l1.074-4.959
						c0.297-0.271,0.504-0.413,0.891-0.413s0.026,0.851,0.748,0.851c0.633,0,0.968-0.555,0.968-1.006
						c0-0.49-0.349-0.825-0.929-0.825c-0.542,0-1.058,0.284-1.522,0.646l0.148-0.704l-1.962,0.44l-1.04,4.988
						c-0.259,0.215-0.512,0.404-0.723,0.499c-0.5,0.222-0.676-0.116-0.676-0.39c0-0.111,0.024-0.248,0.05-0.385L19.319,26.686z
						 M16.599,31.045c-0.036,0.148-0.062,0.286-0.074,0.41c-0.236,0.348-0.51,0.621-0.795,0.621c-0.312,0-0.721-0.137-0.721-0.883
						c0-1.689,0.745-3.666,1.677-3.666c0.175,0,0.411,0.051,0.609,0.225L16.599,31.045z"/>
					<path fill="#FFFFFF" d="M24.224,27.898c-0.227,0.001-0.53,0-0.713-0.376c-0.003-0.007-0.005-0.013-0.01-0.021
						c-0.494,0.93-0.936,2.163-0.936,2.983c0,1.12,0.949,1.652,2.287,1.652c1.393,0,2.531-1.172,2.644-1.675
						c-0.453,0.587-1.123,0.923-1.778,0.923c-0.543,0-1.016-0.135-1.016-0.994c0-0.156,0.014-0.352,0.041-0.561
						c1.323-0.156,3.148-1.068,3.148-2.658c0-0.912-0.641-1.354-1.782-1.354c-0.373,0-0.705,0.063-1.003,0.175l-0.005,0.015
						C25.756,26.663,25.054,27.891,24.224,27.898z M26.569,26.508c0.417,0,0.486,0.456,0.486,0.73
						c-0.014,0.924-0.919,1.953-2.201,1.967C25.148,27.98,25.788,26.508,26.569,26.508z"/>
					<path fill="#FFFFFF" d="M7.788,30.372c0.178,0.847,0.538,1.745,1.017,2.468c0.75,1.131,1.978,1.764,3.28,1.977
						c0.751,0.123,1.76-0.037,2.465-0.325c0.596-0.243,1.358-0.621,1.951-1.294c-2.063,1.289-4.434,0.997-5.328-0.363
						c-1.31-1.991,0.311-7.441,2.813-8.964c0.471-0.286,1.382-0.569,1.963-0.343c0.785,0.309,0.835,1.137,0.676,1.586
						c0.31-0.168,0.62-0.434,0.82-0.869c0.499-1.092-0.33-2.137-1.396-2.513c-1.426-0.503-3.314-0.077-4.589,0.678
						C8.633,24.085,7.106,27.125,7.788,30.372z"/>
					<path fill="#FFFFFF" d="M17.377,33.736l-0.604,0.152l-0.203,1.29c-0.012,0.085-0.015,0.161-0.012,0.228
						c0.021,0.33,0.224,0.469,0.537,0.451c0.171-0.011,0.38-0.201,0.559-0.402c0.056,0.25,0.241,0.354,0.517,0.338
						c0.702-0.043,0.944-1.021,1.012-1.633c0.022-0.195,0.054-0.408,0.037-0.608c-0.001-0.016-0.003-0.03-0.005-0.046
						c-0.02-0.152-0.165-0.378-0.34-0.324c-0.112,0.034-0.19,0.166-0.161,0.293c0.032,0.139,0.153,0.152,0.266,0.143
						c0.03,0.248-0.024,0.525-0.071,0.766c-0.056,0.278-0.179,0.973-0.524,0.994c-0.119,0.006-0.158-0.049-0.164-0.133
						c-0.002-0.049,0.003-0.102,0.011-0.164l0.205-1.611l-0.569,0.174l-0.22,1.473c-0.009,0.053-0.014,0.107-0.012,0.15
						c-0.093,0.094-0.189,0.167-0.275,0.172c-0.162,0.01-0.206-0.059-0.212-0.156c-0.003-0.039,0.003-0.088,0.007-0.137
						L17.377,33.736z"/>
					<circle fill="#FFFFFF" cx="19.742" cy="33.178" r="0.311"/>
					<path fill="#FFFFFF" d="M23.579,34.771c-0.273,0.129-0.451,0.024-0.449-0.119c0-0.059,0.023-0.125,0.039-0.182l0.193-0.854
						c0.009-0.03,0.009-0.067,0.01-0.098c0.004-0.296-0.257-0.571-0.508-0.575c-0.193-0.002-0.397,0.1-0.579,0.229l-0.008,0.029
						l0.17-1.139l-0.632,0.189l-0.4,2.707c-0.088,0.075-0.175,0.134-0.254,0.139c-0.165,0.01-0.21-0.05-0.217-0.145
						c0-0.021-0.007-0.062,0.199-1.382l0.248-0.015l0.023-0.167l-0.247,0.015c0.056-0.376,0.131-0.804,0.131-0.804l-0.612,0.185
						l-0.113,0.654l-0.137,0.008l-0.022,0.168l0.137-0.008c-0.049,0.358-0.212,1.245-0.198,1.464c0,0,0,0.001,0,0.003
						c-0.091,0.078-0.182,0.141-0.264,0.146c-0.169,0.011-0.214-0.055-0.22-0.147c-0.002-0.037,0.004-0.084,0.009-0.131l0.22-1.452
						l-0.633,0.225l-0.192,1.265c-0.012,0.08-0.016,0.151-0.012,0.215c0.019,0.314,0.229,0.445,0.553,0.426
						c0.178-0.01,0.389-0.189,0.574-0.382c0.072,0.188,0.25,0.269,0.502,0.253c0.152-0.009,0.328-0.143,0.49-0.301l-0.037,0.248
						l0.633-0.191l0.279-1.889c0.082-0.055,0.162-0.084,0.26-0.082c0.14,0.001,0.201,0.137,0.199,0.279
						c0,0.037-0.005,0.072-0.01,0.104l-0.181,0.803c-0.02,0.076-0.029,0.152-0.029,0.225c-0.002,0.158,0.049,0.342,0.188,0.434
						c0.075,0.047,0.171,0.074,0.264,0.081c0.137,0.011,0.562-0.065,0.755-0.197c0.16-0.108,0.521-0.288,0.988-1.315
						C24.214,34.396,23.897,34.622,23.579,34.771z"/>
					<path fill="#FFFFFF" d="M28.209,33.395c-1.931-0.297-2.826,0.648-3.728,1.645c2.098-0.861,3.148-0.231,3.497,0.791
						c0.319,0.939,0.167,2.064-0.05,2.705c-0.35,1.033-1.428,3.116-3.326,4.213c-2.608,1.51-5.645,1.859-7.535,1.803
						c-1.444-0.043-3.427-0.217-5.378-0.973c-1.308-0.506-2.689-1.129-4.131-2.48c0.128,0.102,0.249,0.189,0.375,0.283
						c-0.116-0.09-0.229-0.182-0.329-0.271c-0.004,0.004-0.007,0.009-0.011,0.012c0.003-0.004,0.006-0.009,0.01-0.013l-0.002-0.001
						c0.003-0.005,0.01-0.011,0.013-0.015c0.533-0.704,0.97-1.574,0.861-3.795c-0.058-1.187-0.755-3.67-1.87-7.32
						c-0.598-1.951-0.786-5.016,0.325-6.723c0.175-0.27,0.366-0.502,0.567-0.719c0.791-0.918,1.972-1.484,3.161-1.595
						c0.221-0.021,0.434-0.022,0.645-0.012c0.011,0.001,0.023-0.001,0.034-0.001c-0.005,0.002-0.012,0.002-0.018,0.004
						c0.151,0.008,0.302,0.021,0.45,0.053c-1.465-0.697-3.063-0.328-4.13,0.459c-1.142,0.842-1.806,1.82-2.332,3.137
						c-0.141,0.354-0.254,0.719-0.342,1.09c-0.415,1.768-0.43,3.643-0.144,5.408c0.223,1.379,0.476,2.75,0.718,4.125
						c0.229,1.309,0.536,3.567-0.214,4.848c-0.423-0.276-0.758-0.473-1.572-0.894c-1.272-0.657-3.489-1.478-4.354,0.228
						c-0.798,1.575,1.093,2.804,2.335,3.086c0.778,0.177,1.578,0.169,2.363,0.061c0.308-0.043,1.579-0.507,1.823-0.367
						c0.799,0.453,1.02,0.531,2.216,1.123c3.414,1.686,3.825,1.916,7.623,2.26c4.856,0.438,11.395-1.08,13.742-5.822
						C31.333,36.025,30.341,33.723,28.209,33.395z M3.031,41.395C2.445,41.51,1.807,41.4,1.348,41.227
						c-0.403-0.152-1.113-0.668-0.812-1.365c0.246-0.57,0.984-0.508,1.362-0.402c0.875,0.247,1.829,1.127,2.277,1.605
						C3.866,41.189,3.39,41.324,3.031,41.395z"/>
				</g>
			</g>
		</g>
	</g>
</g>
<path fill="#4D3539" d="M17.496-0.003c-9.648,0-17.499,7.852-17.499,17.5s7.851,17.5,17.499,17.5c9.651,0,17.501-7.852,17.501-17.5
	S27.147-0.003,17.496-0.003z M22.31,11.432h-1.779c-1.088,0-1.546,0.36-1.546,1.519v2.157h3.15l-0.412,3.15h-2.738v8.399h-3.5
	v-8.399h-2.8v-3.15h2.8v-2.536c0-2.594,1.676-4.203,4.208-4.203c1.523,0,2.617,0.119,2.617,0.119V11.432z"/>
<path fill="#FFFFFF" d="M15.485,12.572v2.536h-2.8v3.15h2.8v8.399h3.5v-8.399h2.738l0.412-3.15h-3.15v-2.157
	c0-1.159,0.458-1.519,1.546-1.519h1.779V8.488c0,0-1.093-0.119-2.617-0.119C17.161,8.369,15.485,9.978,15.485,12.572z"/>
</svg>
