<?xml version="1.0" encoding="utf-8"?>
<!-- Generator: Adobe Illustrator 16.0.0, SVG Export Plug-In . SVG Version: 6.00 Build 0)  -->
<!DOCTYPE svg PUBLIC "-//W3C//DTD SVG 1.1//EN" "http://www.w3.org/Graphics/SVG/1.1/DTD/svg11.dtd">
<svg version="1.1" id="Layer_1" xmlns="http://www.w3.org/2000/svg" xmlns:xlink="http://www.w3.org/1999/xlink" x="0px" y="0px"
	 width="35.003px" height="35px" viewBox="0 0 35.003 35" enable-background="new 0 0 35.003 35" xml:space="preserve">
<g>
	<path fill-rule="evenodd" clip-rule="evenodd" fill="#4D3539" d="M18.632-0.43c9.678,0.65,17,8.998,16.328,18.613
		C34.281,27.868,26,35.132,16.37,34.491C6.694,33.851-0.626,25.505,0.042,15.883C0.716,6.205,9.013-1.073,18.632-0.43z
		 M17.099,27.04c2.237,0.145,4.477,0.291,6.714,0.428c2.292,0.139,4.073-1.41,4.247-3.695c0.078-1.021,0.144-2.043,0.195-3.064
		c0.116-2.269-1.43-4.053-3.701-4.207c-4.503-0.306-9.007-0.593-13.508-0.861c-2.29-0.135-4.047,1.449-4.21,3.74
		c-0.071,0.969-0.13,1.939-0.19,2.906c-0.143,2.41,1.408,4.174,3.816,4.332C12.675,26.761,14.887,26.897,17.099,27.04z M11.8,5.653
		c0.045,0.209,0.068,0.349,0.104,0.484c0.306,1.151,0.593,2.309,0.928,3.452c0.205,0.702,0.289,1.399,0.207,2.127
		c-0.075,0.7-0.096,1.407-0.144,2.144c0.376,0.023,0.702,0.046,1.024,0.063c0.103,0.007,0.208,0,0.338-0.002
		c0.014-0.13,0.048-0.246,0.044-0.359c-0.075-2.119,0.476-4.089,1.416-5.967c0.027-0.058,0.048-0.122,0.073-0.182
		c0.189-0.47,0.378-0.939,0.586-1.443c-0.49-0.032-0.928-0.06-1.386-0.089c-0.354,1.049-0.702,2.091-1.052,3.136
		c-0.112-0.133-0.144-0.246-0.167-0.358c-0.185-0.873-0.355-1.746-0.554-2.613c-0.027-0.119-0.154-0.287-0.26-0.305
		C12.6,5.685,12.232,5.682,11.8,5.653z M19.695,11.376h0.003c0.031-1,0.065-1.063,0.099-1.572c0.001-0.027,0.001-0.075,0.004-0.101
		c0.023-0.741-0.376-1.368-1.091-1.536c-0.41-0.096-0.864-0.109-1.276-0.041c-0.711,0.121-1.116,0.612-1.171,1.332
		c-0.077,1.044-0.15,2.089-0.198,3.135c-0.041,0.944,0.535,1.59,1.479,1.701c0.171,0.02,0.342,0.026,0.511,0.021
		c0.869-0.021,1.456-0.512,1.538-1.375C19.641,12.406,19.661,11.376,19.695,11.376z M23.154,8.53
		c-0.039,0.615-0.075,1.188-0.111,1.762c-0.055,0.851-0.105,1.702-0.167,2.553c-0.021,0.286-0.46,0.645-0.756,0.608
		c-0.395-0.051-0.308-0.365-0.294-0.615c0.07-1.177,0.147-2.353,0.223-3.531c0.017-0.271,0.034-0.542,0.053-0.829
		C21.673,8.45,21.291,8.427,20.888,8.4c-0.107,1.679-0.215,3.326-0.314,4.973c-0.055,0.932,0.499,1.343,1.373,1.016
		c0.217-0.082,0.408-0.227,0.613-0.343c0.07-0.04,0.144-0.075,0.23-0.122c0.004,0.207,0.009,0.371,0.011,0.542
		c0.403,0.025,0.772,0.049,1.151,0.073c0.127-1.991,0.253-3.955,0.377-5.935C23.938,8.579,23.576,8.557,23.154,8.53z"/>
	<path fill-rule="evenodd" clip-rule="evenodd" fill="#FFFFFF" d="M17.099,27.04c-2.212-0.143-4.424-0.279-6.637-0.422
		c-2.408-0.158-3.959-1.922-3.816-4.332c0.061-0.967,0.119-1.938,0.19-2.906c0.163-2.291,1.92-3.875,4.21-3.74
		c4.501,0.269,9.005,0.556,13.508,0.861c2.271,0.154,3.817,1.938,3.701,4.207c-0.052,1.021-0.117,2.043-0.195,3.064
		c-0.174,2.285-1.955,3.834-4.247,3.695C21.575,27.331,19.336,27.185,17.099,27.04z M18.857,24.583
		c0.133,0.105,0.229,0.195,0.339,0.264c0.717,0.453,1.548,0.148,1.627-0.65c0.123-1.227,0.208-2.457,0.229-3.688
		c0.014-0.879-0.827-1.305-1.593-0.871c-0.099,0.057-0.191,0.119-0.355,0.219c0.052-0.811,0.101-1.548,0.146-2.288
		c-0.382-0.024-0.716-0.045-1.06-0.068c-0.155,2.448-0.311,4.876-0.465,7.294C18.554,24.976,18.724,24.944,18.857,24.583z
		 M23.578,23.413c-0.025,0.211-0.036,0.381-0.063,0.545c-0.044,0.27-0.188,0.422-0.481,0.402c-0.291-0.018-0.441-0.178-0.438-0.449
		c0.01-0.439,0.053-0.879,0.082-1.357c0.697,0.045,1.356,0.086,2.044,0.131c0.034-0.523,0.072-1.004,0.094-1.486
		c0.036-0.939-0.459-1.502-1.365-1.576c-0.979-0.08-1.709,0.438-1.795,1.338c-0.092,0.924-0.152,1.855-0.173,2.783
		c-0.025,1.074,0.71,1.664,1.877,1.561c0.88-0.076,1.413-0.844,1.256-1.824C24.284,23.458,23.949,23.437,23.578,23.413z
		 M16.844,24.763c0.116-1.818,0.23-3.592,0.344-5.377c-0.355-0.023-0.688-0.045-1.057-0.068c-0.044,0.678-0.087,1.33-0.128,1.982
		c-0.041,0.639-0.075,1.281-0.123,1.92c-0.022,0.275-0.398,0.57-0.672,0.537c-0.374-0.045-0.258-0.338-0.246-0.551
		c0.065-1.176,0.146-2.354,0.221-3.531c0.009-0.137,0.019-0.273,0.025-0.412c-0.395-0.025-0.725-0.047-1.077-0.068
		c-0.102,1.596-0.219,3.162-0.293,4.73c-0.028,0.629,0.472,0.941,1.119,0.725c0.289-0.096,0.547-0.277,0.832-0.426
		c0.014,0.16,0.024,0.314,0.036,0.475C16.172,24.72,16.493,24.739,16.844,24.763z M10.807,24.368
		c0.435,0.027,0.815,0.053,1.253,0.08c0.134-2.098,0.264-4.168,0.398-6.271c0.439,0.027,0.829,0.053,1.222,0.078
		c0.024-0.369,0.045-0.701,0.065-1.038c-1.251-0.079-2.474-0.158-3.704-0.237c-0.023,0.355-0.046,0.688-0.068,1.067
		c0.417,0.027,0.815,0.054,1.232,0.079C11.07,20.226,10.938,22.276,10.807,24.368z"/>
	<path fill-rule="evenodd" clip-rule="evenodd" fill="#FFFFFF" d="M11.8,5.653c0.433,0.028,0.8,0.031,1.159,0.088
		c0.105,0.018,0.232,0.186,0.26,0.305c0.198,0.867,0.369,1.74,0.554,2.613c0.023,0.112,0.055,0.226,0.167,0.358
		c0.35-1.045,0.698-2.087,1.052-3.136c0.458,0.029,0.896,0.057,1.386,0.089c-0.208,0.504-0.396,0.974-0.586,1.443
		c-0.025,0.06-0.046,0.124-0.073,0.182c-0.94,1.878-1.491,3.848-1.416,5.967c0.004,0.113-0.03,0.229-0.044,0.359
		c-0.13,0.002-0.235,0.009-0.338,0.002c-0.322-0.018-0.648-0.04-1.024-0.063c0.048-0.736,0.068-1.443,0.144-2.144
		c0.082-0.728-0.002-1.425-0.207-2.127c-0.335-1.144-0.622-2.301-0.928-3.452C11.868,6.002,11.845,5.862,11.8,5.653z"/>
	<path fill-rule="evenodd" clip-rule="evenodd" fill="#FFFFFF" d="M19.695,11.376c-0.034,0-0.055,1.029-0.104,1.564
		c-0.082,0.863-0.669,1.375-1.538,1.396c-0.169,0.005-0.34-0.014-0.511-0.033c-0.943-0.111-1.52-0.762-1.479-1.707
		c0.048-1.045,0.121-2.095,0.198-3.139c0.055-0.72,0.46-1.215,1.171-1.336c0.412-0.069,0.866-0.061,1.276,0.035
		c0.715,0.168,1.114,0.783,1.091,1.524c-0.003,0.025-0.003,0.095-0.004,0.122c-0.033,0.51-0.067,0.572-0.099,1.572H19.695z
		 M17.415,11.117c-0.034,0.521-0.068,1.044-0.098,1.566c-0.019,0.331,0.091,0.564,0.465,0.594c0.354,0.027,0.552-0.132,0.579-0.527
		c0.077-1.03,0.134-2.063,0.202-3.094c0.025-0.358-0.144-0.539-0.492-0.565c-0.353-0.027-0.526,0.123-0.556,0.498
		C17.475,10.097,17.447,10.608,17.415,11.117z"/>
	<path fill-rule="evenodd" clip-rule="evenodd" fill="#FFFFFF" d="M23.154,8.53c0.422,0.026,0.784,0.049,1.175,0.074
		c-0.124,1.979-0.25,3.943-0.377,5.935c-0.379-0.024-0.748-0.048-1.151-0.073c-0.002-0.171-0.007-0.335-0.011-0.542
		c-0.087,0.047-0.16,0.082-0.23,0.122c-0.205,0.116-0.396,0.261-0.613,0.343c-0.874,0.327-1.428-0.084-1.373-1.016
		c0.1-1.646,0.207-3.294,0.314-4.973c0.403,0.026,0.785,0.05,1.214,0.077c-0.019,0.287-0.036,0.559-0.053,0.829
		c-0.075,1.179-0.152,2.354-0.223,3.531c-0.014,0.25-0.101,0.564,0.294,0.615c0.296,0.036,0.735-0.322,0.756-0.608
		c0.062-0.851,0.112-1.702,0.167-2.553C23.079,9.718,23.115,9.146,23.154,8.53z"/>
	<path fill-rule="evenodd" clip-rule="evenodd" fill="#4D3539" d="M18.857,24.583c-0.134,0.361-0.304,0.393-1.132,0.211
		c0.154-2.418,0.31-4.846,0.465-7.294c0.344,0.023,0.678,0.044,1.06,0.068c-0.046,0.74-0.095,1.478-0.146,2.288
		c0.164-0.1,0.257-0.162,0.355-0.219c0.766-0.434,1.606-0.008,1.593,0.871c-0.021,1.23-0.105,2.461-0.229,3.688
		c-0.079,0.799-0.91,1.104-1.627,0.65C19.087,24.778,18.99,24.688,18.857,24.583z M18.964,22.185
		c-0.031,0.51-0.068,1.02-0.097,1.527c-0.014,0.316,0.229,0.395,0.459,0.436c0.246,0.041,0.409-0.1,0.424-0.35
		c0.071-1.018,0.14-2.035,0.19-3.055c0.014-0.277-0.157-0.436-0.444-0.434c-0.273,0.006-0.434,0.123-0.442,0.426
		C19.035,21.22,18.997,21.702,18.964,22.185z"/>
	<path fill-rule="evenodd" clip-rule="evenodd" fill="#4D3539" d="M23.578,23.413c0.371,0.023,0.706,0.045,1.037,0.066
		c0.157,0.98-0.376,1.748-1.256,1.824c-1.167,0.104-1.902-0.486-1.877-1.561c0.021-0.928,0.081-1.859,0.173-2.783
		c0.086-0.9,0.815-1.418,1.795-1.338c0.906,0.074,1.401,0.637,1.365,1.576c-0.021,0.482-0.06,0.963-0.094,1.486
		c-0.688-0.045-1.347-0.086-2.044-0.131c-0.029,0.479-0.072,0.918-0.082,1.357c-0.004,0.271,0.146,0.432,0.438,0.449
		c0.294,0.02,0.438-0.133,0.481-0.402C23.542,23.794,23.553,23.624,23.578,23.413z M23.694,21.757
		c-0.068-0.408,0.197-0.838-0.21-1.123c-0.116-0.08-0.462-0.066-0.496,0.002c-0.15,0.322-0.229,0.676-0.345,1.057
		C23.05,21.716,23.334,21.735,23.694,21.757z"/>
	<path fill-rule="evenodd" clip-rule="evenodd" fill="#4D3539" d="M16.844,24.763c-0.351-0.023-0.672-0.043-1.019-0.064
		c-0.012-0.16-0.022-0.314-0.036-0.475c-0.285,0.148-0.543,0.33-0.832,0.426c-0.647,0.217-1.147-0.096-1.119-0.725
		c0.074-1.568,0.191-3.135,0.293-4.73c0.353,0.021,0.683,0.043,1.077,0.068c-0.007,0.139-0.017,0.275-0.025,0.412
		c-0.075,1.178-0.155,2.355-0.221,3.531c-0.012,0.213-0.128,0.506,0.246,0.551c0.273,0.033,0.649-0.262,0.672-0.537
		c0.048-0.639,0.082-1.281,0.123-1.92c0.041-0.652,0.084-1.305,0.128-1.982c0.369,0.023,0.701,0.045,1.057,0.068
		C17.074,21.171,16.96,22.944,16.844,24.763z"/>
	<path fill-rule="evenodd" clip-rule="evenodd" fill="#4D3539" d="M10.807,24.368c0.132-2.092,0.264-4.143,0.398-6.242
		c-0.417-0.025-0.815-0.052-1.232-0.079c0.022-0.38,0.045-0.712,0.068-1.067c1.23,0.079,2.453,0.158,3.704,0.237
		c-0.021,0.337-0.041,0.669-0.065,1.038c-0.393-0.025-0.782-0.051-1.222-0.078c-0.135,2.104-0.265,4.174-0.398,6.271
		C11.622,24.421,11.241,24.396,10.807,24.368z"/>
	<path fill-rule="evenodd" clip-rule="evenodd" fill="#4D3539" d="M17.415,11.117c0.032-0.509,0.06-1.021,0.101-1.528
		c0.029-0.375,0.203-0.525,0.556-0.498c0.349,0.026,0.518,0.207,0.492,0.565c-0.068,1.031-0.125,2.063-0.202,3.094
		c-0.027,0.396-0.226,0.555-0.579,0.527c-0.374-0.029-0.483-0.263-0.465-0.594C17.347,12.161,17.381,11.639,17.415,11.117z"/>
	<path fill-rule="evenodd" clip-rule="evenodd" fill="#FFFFFF" d="M18.964,22.185c0.033-0.482,0.071-0.965,0.09-1.449
		c0.009-0.303,0.169-0.42,0.442-0.426c0.287-0.002,0.458,0.156,0.444,0.434c-0.051,1.02-0.119,2.037-0.19,3.055
		c-0.015,0.25-0.178,0.391-0.424,0.35c-0.229-0.041-0.473-0.119-0.459-0.436C18.896,23.204,18.933,22.694,18.964,22.185z"/>
	<path fill-rule="evenodd" clip-rule="evenodd" fill="#FFFFFF" d="M23.694,21.757c-0.36-0.021-0.645-0.041-1.051-0.064
		c0.116-0.381,0.194-0.734,0.345-1.057c0.034-0.068,0.38-0.082,0.496-0.002C23.892,20.919,23.626,21.349,23.694,21.757z"/>
</g>
</svg>
